<?xml version="1.0" ?><svg id="Layer_1" style="enable-background:new 0 0 468 468;" version="1.1" viewBox="0 0 468 468" xml:space="preserve" xmlns="http://www.w3.org/2000/svg" xmlns:xlink="http://www.w3.org/1999/xlink"><g><g><g><g><path d="M323.043,363H463v-81.09c0-38.648-31.33-69.978-69.978-69.978h0      c-38.648,0-69.978,31.33-69.978,69.978V363z" style="fill:#9CCC65;"/><path d="M384.024,212.527c2.948-0.378,5.946-0.595,8.997-0.595l0,0c38.648,0,69.978,31.304,69.978,69.92      V363h-17.994v-81.149C445.006,246.284,418.42,216.941,384.024,212.527z" style="fill:#88AD57;"/><path d="M463,368H323.043c-2.761,0-5-2.238-5-5v-81.09c0-41.344,33.635-74.979,74.978-74.979      S468,240.566,468,281.91V363C468,365.762,465.761,368,463,368z M328.043,358H458v-76.09c0-35.829-29.149-64.979-64.978-64.979      s-64.979,29.149-64.979,64.979V358z" style="fill:#333333;"/></g><g><rect height="65.535" style="fill:#FDD2B5;" width="31.581" x="431.419" y="297.465"/><rect height="65.535" style="fill:#F9B995;" width="16.995" x="446.005" y="297.465"/><path d="M463,368h-31.582c-2.761,0-5-2.238-5-5v-65.535c0-2.762,2.239-5,5-5H463c2.761,0,5,2.238,5,5V363      C468,365.762,465.761,368,463,368z M436.418,358H458v-55.535h-21.582V358z" style="fill:#333333;"/></g><g><rect height="65.535" style="fill:#FDD2B5;" width="31.581" x="323.043" y="297.465"/><rect height="65.535" style="fill:#F9B995;" width="16.995" x="337.63" y="297.465"/><path d="M354.625,368h-31.581c-2.761,0-5-2.238-5-5v-65.535c0-2.762,2.239-5,5-5h31.581      c2.761,0,5,2.238,5,5V363C359.625,365.762,357.386,368,354.625,368z M328.043,358h21.581v-55.535h-21.581V358z" style="fill:#333333;"/></g></g><g><path d="M393.022,248.113L393.022,248.113c11.042,0,19.994-8.952,19.994-19.994v-45.173h-39.988v45.173     C373.028,239.162,381.979,248.113,393.022,248.113z" style="fill:#FDD2B5;"/><path d="M397.02,228.136v-45.189h15.995v45.189c0,11.033-8.952,19.977-19.994,19.977     c-2.846,0-5.547-0.603-7.998-1.674C392.083,243.356,397.02,236.326,397.02,228.136z" style="fill:#F9B995;"/><path d="M393.021,253.113c-13.782,0-24.994-11.212-24.994-24.994v-45.173c0-2.762,2.239-5,5-5h39.988     c2.761,0,5,2.238,5,5v45.173C418.016,241.901,406.803,253.113,393.021,253.113z M378.028,187.946v40.173     c0,8.268,6.726,14.994,14.994,14.994s14.994-6.727,14.994-14.994v-40.173H378.028z" style="fill:#333333;"/></g><g><circle cx="352.789" cy="211.2" r="21.102" style="fill:#FBAB68;"/><path d="M352.789,190.095c8.246,0,15.382,4.733,18.854,11.628c-2.85-1.435-6.067-2.249-9.475-2.249     c-11.654,0-21.102,9.449-21.102,21.105c0,3.409,0.813,6.626,2.248,9.476c-6.894-3.472-11.627-10.609-11.627-18.856     C331.687,199.544,341.134,190.095,352.789,190.095z" style="fill:#EA8E49;"/><path d="M352.789,237.305c-14.393,0-26.103-11.71-26.103-26.104s11.709-26.104,26.103-26.104     c14.393,0,26.102,11.71,26.102,26.104S367.182,237.305,352.789,237.305z M352.789,195.096c-8.879,0-16.103,7.225-16.103,16.104     s7.224,16.104,16.103,16.104s16.102-7.225,16.102-16.104S361.668,195.096,352.789,195.096z" style="fill:#333333;"/></g><g><g><ellipse cx="393.022" cy="158.466" rx="53.575" ry="53.466" style="fill:#FDD2B5;"/><path d="M393.021,216.932c-32.298,0-58.574-26.228-58.574-58.466S360.724,100,393.021,100      c32.298,0,58.575,26.228,58.575,58.466S425.32,216.932,393.021,216.932z M393.021,110c-26.784,0-48.574,21.741-48.574,48.466      s21.791,48.466,48.574,48.466c26.784,0,48.575-21.741,48.575-48.466S419.806,110,393.021,110z" style="fill:#333333;"/></g><g><path d="M393.022,105c-8.628,0-16.773,2.048-23.993,5.664l0,0c11.101,29.011,43.401,43.787,72.618,33.22      l2.643-0.956C437.62,120.979,417.194,105,393.022,105z" style="fill:#FBAB68;"/><path d="M380.644,106.445c-4.07,0.964-7.962,2.389-11.615,4.219v0      c11.101,29.011,43.401,43.787,72.619,33.22l2.643-0.956c-0.476-1.565-1.029-3.096-1.641-4.597      C417.384,143.044,391.689,130.114,380.644,106.445z" style="fill:#EA8E49;"/><path d="M422.229,152.31c-8.79,0-17.55-1.89-25.765-5.647c-14.863-6.799-26.265-18.949-32.105-34.211      c-0.918-2.4,0.133-5.106,2.431-6.258c8.205-4.109,17.031-6.193,26.231-6.193c25.988,0,48.514,16.667,56.053,41.475      c0.773,2.546-0.583,5.252-3.085,6.156l-2.643,0.955C436.473,151.072,429.341,152.31,422.229,152.31z M375.594,113.221      c11.205,22.77,37.873,34.35,62.302,26.655C430.44,121.824,412.96,110,393.021,110C386.982,110,381.14,111.082,375.594,113.221z" style="fill:#333333;"/></g></g></g><g><g><g><path d="M144.957,363H5v-81.09c0-38.648,31.33-69.978,69.978-69.978h0      c38.648,0,69.978,31.33,69.978,69.978V363z" style="fill:#FFD766;"/><path d="M83.976,212.527c-2.948-0.378-5.946-0.595-8.997-0.595l0,0C36.33,211.932,5,243.236,5,281.851      V363h17.994v-81.149C22.994,246.284,49.58,216.941,83.976,212.527z" style="fill:#FFC533;"/><path d="M144.957,368H5c-2.761,0-5-2.238-5-5v-81.09c0-41.344,33.635-74.979,74.978-74.979      c41.343,0,74.979,33.635,74.979,74.979V363C149.957,365.762,147.718,368,144.957,368z M10,358h129.957v-76.09      c0-35.829-29.149-64.979-64.978-64.979S10,246.081,10,281.91V358z" style="fill:#333333;"/></g><g><rect height="65.535" style="fill:#FDD2B5;" width="31.581" x="5" y="297.465"/><rect height="65.535" style="fill:#F9B995;" width="16.995" x="5" y="297.465"/><path d="M36.582,368H5c-2.761,0-5-2.238-5-5v-65.535c0-2.762,2.239-5,5-5h31.582c2.761,0,5,2.238,5,5V363      C41.582,365.762,39.343,368,36.582,368z M10,358h21.582v-55.535H10V358z" style="fill:#333333;"/></g><g><rect height="65.535" style="fill:#FDD2B5;" width="31.581" x="113.375" y="297.465"/><rect height="65.535" style="fill:#F9B995;" width="16.995" x="113.375" y="297.465"/><path d="M144.957,368h-31.581c-2.761,0-5-2.238-5-5v-65.535c0-2.762,2.239-5,5-5h31.581      c2.761,0,5,2.238,5,5V363C149.957,365.762,147.718,368,144.957,368z M118.375,358h21.581v-55.535h-21.581V358z" style="fill:#333333;"/></g></g><g><path d="M74.978,248.113L74.978,248.113c-11.042,0-19.994-8.952-19.994-19.994v-45.173h39.988v45.173     C94.972,239.162,86.021,248.113,74.978,248.113z" style="fill:#FDD2B5;"/><path d="M70.98,228.136v-45.189H54.985v45.189c0,11.033,8.952,19.977,19.994,19.977     c2.846,0,5.547-0.603,7.998-1.674C75.917,243.356,70.98,236.326,70.98,228.136z" style="fill:#F9B995;"/><path d="M74.979,253.113c-13.782,0-24.994-11.212-24.994-24.994v-45.173c0-2.762,2.239-5,5-5h39.988     c2.761,0,5,2.238,5,5v45.173C99.972,241.901,88.76,253.113,74.979,253.113z M59.984,187.946v40.173     c0,8.268,6.727,14.994,14.994,14.994s14.994-6.727,14.994-14.994v-40.173H59.984z" style="fill:#333333;"/></g><g><g><ellipse cx="74.978" cy="158.466" rx="53.575" ry="53.466" style="fill:#FDD2B5;"/><path d="M74.979,216.932c-32.298,0-58.575-26.228-58.575-58.466S42.68,100,74.979,100      c32.298,0,58.574,26.228,58.574,58.466S107.276,216.932,74.979,216.932z M74.979,110c-26.784,0-48.575,21.741-48.575,48.466      s21.791,48.466,48.575,48.466c26.784,0,48.574-21.741,48.574-48.466S101.762,110,74.979,110z" style="fill:#333333;"/></g><g><path d="M118.146,148.154h9.401C122.731,123.561,101.031,105,74.978,105      C74.978,128.833,94.305,148.154,118.146,148.154z" style="fill:#FBAB68;"/><path d="M74.978,105c0,0.623,0.021,1.241,0.047,1.858c19.434,5.256,34.475,21.157,38.471,41.043      c1.528,0.164,3.078,0.253,4.65,0.253h9.401C122.731,123.561,101.031,105,74.978,105z" style="fill:#EA8E49;"/><path d="M127.547,153.153h-9.401c-26.56,0-48.167-21.602-48.167-48.153c0-2.762,2.239-5,5-5      c27.947,0,52.12,19.848,57.476,47.192c0.287,1.467-0.097,2.984-1.046,4.139C130.458,152.484,129.042,153.153,127.547,153.153z       M80.345,110.296c2.586,18.541,18.553,32.857,37.801,32.857h2.926C115.125,125.299,99.157,112.381,80.345,110.296z" style="fill:#333333;"/><path d="M74.978,105c-26.052,0-47.752,18.561-52.569,43.154h9.401      C55.651,148.154,74.978,128.833,74.978,105z" style="fill:#FBAB68;"/><path d="M74.904,107.453c0.046-0.812,0.074-1.629,0.074-2.453c-26.052,0-47.752,18.561-52.569,43.154      h9.401c2.282,0,4.522-0.18,6.708-0.521C42.452,128.568,56.543,113.21,74.904,107.453z" style="fill:#EA8E49;"/><path d="M31.811,153.153h-9.401c-1.495,0-2.911-0.669-3.86-1.822c-0.95-1.154-1.333-2.672-1.046-4.139      C22.858,119.848,47.031,100,74.979,100c2.761,0,5,2.238,5,5C79.979,131.552,58.371,153.153,31.811,153.153z M28.885,143.153      h2.926c19.249,0,35.215-14.316,37.802-32.857C50.8,112.381,34.832,125.299,28.885,143.153z" style="fill:#333333;"/></g></g></g><g><g><path d="M303.034,267.293H164.966c-2.761,0-5-2.238-5-5s2.239-5,5-5h138.067c2.761,0,5,2.238,5,5     S305.795,267.293,303.034,267.293z" style="fill:#333333;"/><path d="M183.03,281.728c-1.094,0-2.196-0.357-3.118-1.094l-18.067-14.435     c-1.17-0.935-1.86-2.346-1.878-3.844c-0.019-1.498,0.635-2.925,1.781-3.89l18.067-15.193c2.112-1.777,5.267-1.507,7.045,0.609     c1.777,2.113,1.505,5.268-0.608,7.045l-13.399,11.268l13.302,10.627c2.157,1.724,2.509,4.87,0.785,7.027     C185.953,281.084,184.499,281.728,183.03,281.728z" style="fill:#333333;"/><path d="M284.97,281.728c-1.468,0-2.922-0.643-3.91-1.879c-1.724-2.157-1.372-5.304,0.785-7.027     l13.302-10.627l-13.399-11.268c-2.113-1.777-2.386-4.932-0.608-7.045s4.931-2.386,7.045-0.609l18.067,15.193     c1.146,0.965,1.8,2.392,1.781,3.89c-0.019,1.498-0.708,2.909-1.878,3.844l-18.067,14.435     C287.166,281.37,286.064,281.728,284.97,281.728z" style="fill:#333333;"/></g><g><polygon points="196.654,191.621 198.703,199.684 204.458,196.582 204.458,227.243 213.542,227.243      213.542,186.29 206.751,186.29    " style="fill:#333333;"/><path d="M260.183,195.036c-3.362,0-6.678,1.41-8.934,3.785c-1.939-2.409-4.842-3.785-8.013-3.785     c-2.634,0-4.944,0.697-6.873,2.074l-0.075-1.453h-8.675l0.378,31.587h9.139v-18.614c0-2.485,1.812-5.254,4.411-5.254     c3.216,0,3.563,3.753,3.563,5.366v18.502h9.141v-19.009c0-2.293,1.766-4.859,4.129-4.859c0.937,0,3.789,0,3.789,6.27v17.598     h9.141v-18.22C271.306,198.699,265.314,195.036,260.183,195.036z" style="fill:#333333;"/></g></g></g><g/><g/><g/><g/><g/><g/><g/><g/><g/><g/><g/><g/><g/><g/><g/></svg>