<?xml version="1.0" standalone="no"?>
<!DOCTYPE svg PUBLIC "-//W3C//DTD SVG 20010904//EN"
 "http://www.w3.org/TR/2001/REC-SVG-20010904/DTD/svg10.dtd">
<svg version="1.0" xmlns="http://www.w3.org/2000/svg"
 width="1500.000000pt" height="371.000000pt" viewBox="0 0 1500.000000 371.000000"
 preserveAspectRatio="xMidYMid meet">

<g transform="translate(0.000000,371.000000) scale(0.100000,-0.100000)"
fill="#000000" stroke="none">
<path d="M1346 3185 c-60 -21 -108 -66 -141 -132 l-30 -61 -79 -22 c-224 -66
-469 -242 -604 -436 -28 -41 -43 -54 -63 -54 -14 0 -46 -7 -70 -15 -173 -59
-231 -294 -105 -428 14 -15 26 -31 26 -35 0 -4 -16 -16 -36 -27 -47 -25 -102
-87 -127 -144 -16 -36 -21 -74 -25 -172 -4 -119 -3 -128 17 -148 11 -11 32
-21 46 -21 l25 0 0 -111 c0 -61 5 -119 10 -130 10 -17 22 -19 139 -19 l128 0
27 -40 c135 -204 382 -382 630 -454 l56 -17 0 -79 c0 -43 4 -90 10 -104 l10
-26 249 0 c292 0 271 -10 271 123 l0 85 83 25 c231 73 468 245 597 435 l35 51
125 1 c84 0 130 4 138 12 8 8 12 51 12 129 l0 116 39 7 c22 3 41 13 45 22 14
35 6 242 -11 294 -19 60 -95 150 -143 170 -16 7 -30 15 -30 17 0 3 11 19 25
35 68 80 89 172 60 260 -32 100 -113 172 -207 184 -47 6 -52 10 -104 80 -145
192 -368 348 -594 415 -72 21 -77 24 -93 63 -43 103 -135 166 -241 166 -34 -1
-78 -7 -100 -15z m172 -86 c113 -55 135 -208 42 -292 -66 -60 -132 -68 -210
-25 -125 68 -116 260 14 319 54 24 100 24 154 -2z m367 -254 c96 -41 231 -135
319 -221 56 -56 126 -141 126 -155 0 -5 -13 -15 -28 -23 -41 -21 -92 -75 -113
-121 -41 -87 -17 -220 52 -291 l30 -31 -44 -26 c-55 -33 -93 -76 -124 -144
-22 -47 -23 -62 -21 -190 l3 -138 43 -9 42 -10 0 -122 c0 -139 -4 -134 91
-134 32 0 59 -4 59 -9 0 -16 -162 -181 -228 -231 -37 -28 -116 -76 -177 -106
l-110 -54 -6 117 c-8 165 -46 244 -149 305 -19 12 -37 23 -39 24 -2 2 9 17 23
35 52 61 70 109 70 184 0 59 -4 79 -29 124 -54 97 -144 147 -253 139 -143 -11
-243 -118 -244 -261 0 -74 17 -121 67 -175 l36 -41 -29 -15 c-71 -37 -126
-102 -152 -181 -7 -22 -16 -88 -19 -148 l-6 -107 -101 49 c-125 62 -238 145
-327 241 -102 110 -102 110 -18 110 89 0 91 4 91 149 l0 111 25 0 c14 0 35 10
46 21 20 20 21 29 17 148 -4 97 -9 136 -25 172 -26 59 -75 113 -129 145 l-44
26 32 31 c77 78 94 202 42 303 -26 52 -87 113 -126 126 -32 11 153 208 267
285 101 68 286 153 333 153 12 0 22 -14 31 -45 7 -24 31 -64 52 -89 l39 -44
-44 -26 c-57 -34 -111 -96 -131 -155 -21 -57 -31 -255 -16 -293 7 -20 20 -29
45 -33 l34 -7 4 -119 c2 -93 6 -122 18 -129 8 -5 122 -10 257 -10 229 0 243 1
253 19 5 11 10 69 10 129 l0 110 34 6 c55 11 59 21 54 163 -5 155 -24 208 -99
278 -26 25 -52 45 -56 45 -4 0 -14 4 -22 9 -11 7 -6 18 22 56 20 25 41 63 47
83 6 20 13 42 15 49 4 12 83 -11 180 -52z m-315 -202 c53 -23 107 -75 126
-120 9 -20 14 -69 14 -128 l0 -95 -29 0 c-50 0 -61 -28 -61 -157 l0 -113 -180
0 -180 0 0 119 c0 133 -7 151 -61 151 l-29 0 0 95 c0 75 4 104 19 133 31 60
92 107 171 133 42 14 161 4 210 -18z m-1027 -273 c103 -70 113 -209 21 -289
-64 -57 -143 -62 -216 -15 -93 60 -104 211 -21 286 57 52 155 60 216 18z
m1955 15 c75 -32 115 -90 115 -170 0 -85 -52 -153 -134 -175 -68 -19 -134 4
-187 64 -74 85 -44 223 60 275 51 25 95 27 146 6z m-1921 -465 c55 -23 117
-82 133 -126 6 -14 10 -68 10 -120 l0 -94 -29 0 c-50 0 -61 -28 -61 -157 l0
-113 -180 0 -180 0 0 113 c0 129 -11 157 -61 157 l-31 0 4 109 c3 105 4 111
34 147 41 51 72 73 135 95 68 25 154 20 226 -11z m1989 0 c101 -49 135 -109
142 -242 l5 -98 -30 0 c-56 0 -62 -13 -65 -145 l-3 -120 -182 -3 -183 -2 0
119 c0 133 -7 151 -61 151 l-29 0 0 93 c0 79 4 101 23 137 65 123 248 175 383
110z m-1031 -272 c69 -47 101 -135 76 -210 -26 -78 -126 -139 -202 -123 -118
24 -183 159 -129 265 21 41 63 76 108 91 40 13 112 2 147 -23z m35 -449 c52
-22 114 -82 130 -125 6 -14 10 -68 10 -120 0 -92 -1 -94 -23 -94 -13 0 -32 -6
-43 -14 -17 -13 -19 -29 -22 -135 l-4 -121 -179 0 -179 0 0 119 c0 113 -1 121
-22 135 -12 9 -33 16 -45 16 -22 0 -23 3 -23 90 0 127 25 181 109 233 82 50
196 57 291 16z"/>
<path d="M7560 2835 c-85 -7 -158 -14 -162 -14 -5 -1 -8 -80 -8 -178 l0 -176
107 6 c58 4 135 7 170 7 l63 0 0 185 c0 102 -3 184 -7 184 -5 -1 -78 -8 -163
-14z"/>
<path d="M4150 2762 c-80 -27 -117 -48 -173 -101 -54 -50 -110 -128 -149 -206
-142 -284 -156 -819 -31 -1194 93 -277 235 -392 489 -392 117 0 188 20 272 78
140 96 237 294 244 501 l3 77 -115 12 c-63 6 -131 12 -151 12 l-36 1 -6 -66
c-14 -142 -62 -275 -112 -308 -86 -56 -198 -10 -247 102 -53 120 -86 471 -68
734 21 306 72 452 169 478 74 20 132 -14 170 -101 21 -47 51 -197 51 -256 l0
-34 113 6 c61 3 140 8 174 11 l61 5 -5 57 c-23 261 -152 481 -329 564 -61 29
-80 33 -169 35 -76 2 -113 -1 -155 -15z"/>
<path d="M11731 2765 c-173 -49 -290 -183 -356 -410 -45 -155 -58 -270 -59
-510 -1 -236 10 -338 50 -499 85 -340 233 -477 515 -477 124 0 200 21 287 78
198 132 303 519 281 1040 -6 142 -24 258 -56 371 -54 193 -170 335 -321 393
-75 29 -260 36 -341 14z m232 -291 c86 -45 124 -203 134 -559 8 -309 -18 -568
-66 -663 -48 -93 -128 -123 -218 -83 -110 50 -151 265 -140 739 7 334 30 459
96 533 52 59 120 70 194 33z"/>
<path d="M8840 2726 l-165 -21 -3 -299 -2 -299 -31 46 c-32 49 -80 92 -139
123 -28 15 -56 19 -135 19 -90 0 -105 -3 -152 -27 -69 -37 -120 -90 -154 -163
-59 -125 -79 -252 -79 -510 0 -104 5 -221 10 -260 33 -228 117 -382 238 -438
39 -18 65 -22 157 -22 94 0 116 4 152 22 47 26 98 83 115 130 7 18 15 33 19
33 4 0 24 -38 45 -85 44 -98 28 -92 197 -73 l107 11 0 919 c0 505 -3 917 -7
917 -5 -1 -82 -11 -173 -23z m-264 -692 c19 -9 48 -33 64 -53 l30 -36 0 -295
c0 -221 -4 -312 -15 -364 -26 -122 -86 -183 -170 -174 -125 15 -165 130 -165
480 0 293 31 414 115 448 34 14 105 11 141 -6z"/>
<path d="M9535 2734 c-77 -7 -152 -13 -167 -13 l-28 -1 0 -915 0 -915 28 0
c15 0 96 5 180 12 l152 11 0 919 c0 728 -3 918 -12 917 -7 -1 -76 -8 -153 -15z"/>
<path d="M5345 2280 c-203 -64 -332 -275 -354 -578 -32 -443 118 -759 390
-821 24 -6 78 -11 119 -11 199 0 338 89 431 275 68 139 82 211 83 435 1 170
-2 206 -21 283 -57 221 -175 366 -341 417 -85 27 -224 26 -307 0z m231 -239
c61 -37 91 -149 100 -376 7 -161 -6 -328 -32 -415 -8 -29 -30 -68 -49 -88 -31
-35 -37 -37 -94 -37 -53 0 -63 3 -91 30 -55 52 -80 195 -80 450 0 254 34 405
98 439 38 21 111 20 148 -3z"/>
<path d="M10640 2277 c-69 -25 -157 -76 -227 -134 l-43 -34 0 85 0 86 -32 0
c-18 0 -94 -5 -170 -12 l-138 -11 0 -684 0 -683 23 0 c12 0 88 5 170 12 l147
11 0 503 0 503 91 45 c133 67 194 61 237 -24 22 -44 22 -45 22 -547 l0 -503
32 0 c18 0 94 5 170 12 l139 11 -3 581 -3 581 -26 55 c-30 63 -84 120 -138
146 -58 29 -172 30 -251 1z"/>
<path d="M13338 2281 c-68 -22 -125 -54 -213 -121 l-65 -49 0 84 0 85 -32 0
c-18 0 -94 -5 -170 -12 l-138 -11 0 -684 0 -683 23 0 c12 0 88 5 170 12 l147
11 0 503 0 503 93 46 c81 41 98 46 141 42 57 -5 88 -33 105 -95 7 -23 11 -219
11 -529 l0 -493 32 0 c18 0 94 5 170 12 l139 11 -3 576 c-3 570 -3 577 -25
631 -61 150 -216 215 -385 161z"/>
<path d="M14348 2281 c-123 -40 -205 -112 -271 -238 -129 -246 -127 -671 3
-923 53 -100 142 -187 227 -221 49 -20 76 -23 184 -24 125 0 125 0 201 38 112
55 192 154 243 297 l13 36 -117 44 c-64 24 -121 45 -128 48 -7 2 -28 -30 -51
-80 -22 -45 -51 -93 -65 -106 -31 -29 -96 -39 -137 -22 -61 25 -112 161 -126
334 l-7 86 336 0 c388 0 353 -12 342 118 -17 203 -60 346 -138 455 -52 73 -94
107 -175 145 -78 35 -246 42 -334 13z m189 -222 c69 -26 110 -108 120 -241 l6
-78 -173 0 -173 0 7 60 c13 110 63 217 119 251 37 22 54 23 94 8z"/>
<path d="M6260 2268 c-74 -6 -136 -11 -137 -12 -1 -1 85 -305 191 -676 l193
-675 159 -3 159 -2 197 682 c108 376 195 684 194 686 -4 4 -297 -26 -302 -31
-3 -2 -48 -189 -102 -416 -53 -226 -99 -411 -102 -411 -3 0 -44 195 -90 433
l-85 432 -70 1 c-39 1 -131 -3 -205 -8z"/>
<path d="M7503 2267 l-113 -10 0 -683 0 -684 23 0 c12 0 88 5 170 12 l147 11
0 684 0 683 -57 -2 c-32 0 -109 -6 -170 -11z"/>
</g>
</svg>
