<?xml version="1.0" standalone="no"?>
<svg xmlns="http://www.w3.org/2000/svg" viewBox="0 0 145.656 36" width="145.656" height="36"><g fill="#18627d" color="#18627d" transform="translate(0 4) scale(0.4375)"><svg width="64.0" height="64.0" x="0.0" y="0.0" viewBox="0 0 64 64"><title></title><path d="M57.8,28.821c-.006-.054-.013-.109-.02-.163A6,6,0,0,0,54,18c-.03,0-.056.007-.086.007A26.067,26.067,0,0,0,37.848,6.676,6.007,6.007,0,0,0,32,2a5.531,5.531,0,0,0-.932.076,5.939,5.939,0,0,0-4.906,4.6A26.067,26.067,0,0,0,10.088,18c-.03,0-.058,0-.088,0a5.531,5.531,0,0,0-.932.076A5.993,5.993,0,0,0,6.224,28.657c-.008.057-.016.115-.023.172A6.842,6.842,0,0,0,2,34.9v4.2a1,1,0,0,0,1,1H4V45a1,1,0,0,0,1,1H10.1A26.047,26.047,0,0,0,26,57.3V61a1,1,0,0,0,1,1H37a1,1,0,0,0,1-1V57.3A26.047,26.047,0,0,0,53.905,46H59a1,1,0,0,0,1-1V40.1h1a1,1,0,0,0,1-1V34.9A6.815,6.815,0,0,0,57.8,28.821ZM58,24a3.979,3.979,0,0,1-3.784,3.986l-.11.012A.942.942,0,0,1,54,28a4,4,0,0,1-.609-7.95A3.689,3.689,0,0,1,54,20,4,4,0,0,1,58,24ZM31.391,4.05A3.689,3.689,0,0,1,32,4a4,4,0,0,1,.216,7.986l-.11.012A.938.938,0,0,1,32,12a4,4,0,0,1-.609-7.95ZM27,22.1H26V18.9c0-2.7,2.691-4.9,6-4.9.063,0,.12,0,.228.007,3.237.1,5.772,2.25,5.772,4.891v3.2H37a1,1,0,0,0-1,1V28H28V23.1A1,1,0,0,0,27,22.1ZM9.391,20.05A3.689,3.689,0,0,1,10,20a4,4,0,0,1,.216,7.986l-.11.012A.938.938,0,0,1,10,28a4,4,0,0,1-.609-7.95ZM5,38.1H4V34.9C4,32.2,6.691,30,10,30c.063,0,.12,0,.228.007,3.237.1,5.772,2.25,5.772,4.891v3.2H15a1,1,0,0,0-1,1V44H6V39.1A1,1,0,0,0,5,38.1Zm31,17V60H28V55.1a1,1,0,0,0-1-1H26V50.9c0-2.7,2.691-4.9,6-4.9.063,0,.12,0,.228.007,3.237.1,5.772,2.25,5.772,4.891v3.2H37A1,1,0,0,0,36,55.1ZM28,40a3.974,3.974,0,0,1,3.391-3.95A3.689,3.689,0,0,1,32,36a4,4,0,0,1,.216,7.986l-.11.012A.938.938,0,0,1,32,44,4,4,0,0,1,28,40ZM40,54.627V50.9a6.844,6.844,0,0,0-4.346-6.141A6,6,0,0,0,32,34a5.531,5.531,0,0,0-.932.076,5.99,5.99,0,0,0-2.7,10.686A6.868,6.868,0,0,0,24,50.9v3.729A24.072,24.072,0,0,1,12.511,46H15a1,1,0,0,0,1-1V40.1h1a1,1,0,0,0,1-1V34.9a6.844,6.844,0,0,0-4.346-6.141A5.994,5.994,0,0,0,12.2,18.424,24.077,24.077,0,0,1,26.052,8.75a6,6,0,0,0,2.312,4.012A6.868,6.868,0,0,0,24,18.9v4.2a1,1,0,0,0,1,1h1V29a1,1,0,0,0,1,1H37a1,1,0,0,0,1-1V24.1h1a1,1,0,0,0,1-1V18.9a6.844,6.844,0,0,0-4.346-6.141A5.977,5.977,0,0,0,37.948,8.75,24.081,24.081,0,0,1,51.8,18.431a5.979,5.979,0,0,0-1.439,10.331A6.868,6.868,0,0,0,46,34.9v4.2a1,1,0,0,0,1,1h1V45a1,1,0,0,0,1,1h2.487A24.072,24.072,0,0,1,40,54.627ZM60,38.1H59a1,1,0,0,0-1,1V44H50V39.1a1,1,0,0,0-1-1H48V34.9c0-2.7,2.691-4.9,6-4.9.063,0,.12,0,.228.007,3.237.1,5.772,2.25,5.772,4.891Z"></path></svg></g><path fill="#000fff" fill-rule="nonzero" d="M5.62 19.30Q2.52 19.30 1.26 16.49Q0 13.68 0 9.58L0 9.58Q0 7.37 0.58 5.33Q1.15 3.29 2.44 1.96Q3.72 0.62 5.69 0.62L5.69 0.62Q7.20 0.62 8.34 1.56Q9.48 2.50 10.09 4.00Q10.70 5.50 10.70 7.13L10.70 7.13L7.30 7.30Q7.30 6.22 6.94 4.84Q6.58 3.46 5.50 3.46L5.50 3.46Q4.37 3.46 3.94 5.26Q3.50 7.06 3.50 9.58L3.50 9.58Q3.50 12.70 3.98 14.58Q4.46 16.46 5.83 16.46L5.83 16.46Q6.79 16.46 7.20 15.32Q7.61 14.18 7.73 12.55L7.73 12.55L10.73 12.84Q10.73 14.57 10.15 16.04Q9.58 17.52 8.42 18.41Q7.27 19.30 5.62 19.30L5.62 19.30ZM17.42 19.27Q15.00 19.27 13.69 17.35Q12.38 15.43 12.38 12.24L12.38 12.24Q12.38 9.07 13.68 7.18Q14.98 5.28 17.42 5.28L17.42 5.28Q19.85 5.28 21.18 7.18Q22.51 9.07 22.51 12.24L22.51 12.24Q22.51 15.41 21.18 17.34Q19.85 19.27 17.42 19.27L17.42 19.27ZM17.42 16.78Q18.50 16.78 18.82 15.46Q19.13 14.14 19.13 12.22L19.13 12.22Q19.13 10.30 18.82 8.98Q18.50 7.66 17.42 7.66L17.42 7.66Q16.34 7.66 16.06 8.90Q15.77 10.15 15.77 11.95L15.77 11.95Q15.77 14.16 16.06 15.47Q16.34 16.78 17.42 16.78L17.42 16.78ZM30.29 18.96L27.19 18.96L23.42 5.74L27.46 5.45L29.16 14.09L31.10 5.88L34.15 5.59L30.29 18.96ZM39.10 3.58L35.74 3.72L35.74 0.24L39.10 0L39.10 3.58ZM39.07 18.82L35.71 19.10L35.71 5.74L39.07 5.45L39.07 18.82ZM45.31 19.27Q41.42 19.27 41.42 12.22L41.42 12.22Q41.42 8.54 42.38 6.91Q43.34 5.28 45.38 5.28L45.38 5.28Q46.25 5.28 47.04 5.84Q47.83 6.41 48.19 7.25L48.19 7.25L48.19 1.39L51.58 0.96L51.58 18.82L49.03 19.10L48.19 17.28Q47.95 18.17 47.30 18.72Q46.66 19.27 45.31 19.27L45.31 19.27ZM46.56 16.87Q47.28 16.87 47.74 16.07Q48.19 15.26 48.19 13.34L48.19 13.34L48.19 8.83Q47.50 7.75 46.56 7.75L46.56 7.75Q45.77 7.75 45.40 8.32Q45.02 8.88 44.92 9.79Q44.81 10.70 44.81 12.22L44.81 12.22Q44.81 13.75 44.92 14.71Q45.02 15.67 45.41 16.27Q45.79 16.87 46.56 16.87L46.56 16.87ZM58.20 18.82L54.67 19.10L54.67 1.25L58.20 0.96L58.20 18.82ZM61.34 19.10L61.34 5.74L64.70 5.45L64.70 7.18Q65.74 6.26 66.73 5.77Q67.73 5.28 68.57 5.28L68.57 5.28Q69.84 5.28 70.64 6.20Q71.45 7.13 71.45 8.69L71.45 8.69L71.45 18.82L68.09 19.10L68.09 9.96Q68.09 8.16 66.86 8.16L66.86 8.16Q66.46 8.16 65.96 8.40Q65.47 8.64 64.70 9.10L64.70 9.10L64.70 18.82L61.34 19.10ZM79.34 19.30Q76.30 19.30 75.06 16.67Q73.82 14.04 73.82 9.86L73.82 9.86Q73.82 5.42 75.14 3.02Q76.46 0.62 79.39 0.62L79.39 0.62Q84.98 0.62 84.98 9.77L84.98 9.77Q84.98 13.87 83.72 16.58Q82.46 19.30 79.34 19.30L79.34 19.30ZM79.39 16.46Q80.66 16.46 81.07 14.80Q81.48 13.13 81.48 9.74L81.48 9.74Q81.48 7.03 81.08 5.24Q80.69 3.46 79.39 3.46L79.39 3.46Q78.10 3.46 77.71 5.23Q77.33 7.01 77.33 9.72L77.33 9.72Q77.33 13.13 77.72 14.80Q78.12 16.46 79.39 16.46L79.39 16.46ZM87.46 19.10L87.46 5.74L90.82 5.45L90.82 7.18Q91.85 6.26 92.84 5.77Q93.84 5.28 94.68 5.28L94.68 5.28Q95.95 5.28 96.76 6.20Q97.56 7.13 97.56 8.69L97.56 8.69L97.56 18.82L94.20 19.10L94.20 9.96Q94.20 8.16 92.98 8.16L92.98 8.16Q92.57 8.16 92.08 8.40Q91.58 8.64 90.82 9.10L90.82 9.10L90.82 18.82L87.46 19.10ZM104.69 19.27Q102.29 19.27 101.02 17.36Q99.74 15.46 99.74 12.29L99.74 12.29Q99.74 9.07 101.04 7.18Q102.34 5.28 104.81 5.28L104.81 5.28Q107.16 5.28 108.41 7.18Q109.66 9.07 109.66 12.29L109.66 12.29Q109.66 12.48 109.58 12.56Q109.51 12.65 109.51 12.67L109.51 12.67L103.10 12.67Q103.10 14.23 103.51 15.52Q103.92 16.80 104.76 16.80L104.76 16.80Q105.70 16.80 106.15 15.72Q106.61 14.64 106.63 14.59L106.63 14.59L109.18 15.55Q108.67 17.28 107.57 18.28Q106.46 19.27 104.69 19.27L104.69 19.27ZM103.10 10.73L106.34 10.73Q106.34 9.29 105.96 8.45Q105.58 7.61 104.76 7.61L104.76 7.61Q104.35 7.61 103.97 8.02Q103.58 8.42 103.34 9.14Q103.10 9.86 103.10 10.73L103.10 10.73Z" transform="translate(36, 8.352)"></path></svg>